<svg width="16" height="21" viewBox="0 0 16 21" fill="none" xmlns="http://www.w3.org/2000/svg">
<path d="M11.5259 0.109528H4.62931C1.78448 0.109528 0 2.10113 0 5.29654V18.4854C0 19.4142 0.733327 20.1672 1.63793 20.1672C1.9118 20.167 2.18135 20.097 2.42241 19.9636L8.03448 16.839L14.569 19.9813C14.7461 20.0577 14.9456 20.0586 15.1235 19.9839C15.3014 19.9092 15.443 19.765 15.5172 19.583C15.6268 19.2476 15.494 18.8792 15.1983 18.6978L8.7069 15.5821C8.2828 15.3427 7.76893 15.3427 7.34483 15.5821L1.72414 18.6978C1.65968 18.734 1.5817 18.734 1.51724 18.6978C1.45595 18.6573 1.41993 18.5867 1.42241 18.5119V5.29654C1.43103 2.93318 2.58621 1.58774 4.65517 1.58774H11.5517C14.2069 1.58774 14.5948 3.80063 14.5948 5.12836V5.73027H7.12931C6.9395 5.73719 6.76016 5.8213 6.6308 5.96409C6.50144 6.10688 6.43267 6.29662 6.43966 6.4915C6.44874 6.87866 6.75225 7.19029 7.12931 7.19963H14.569V14.9447C14.569 15.3505 14.8893 15.6794 15.2845 15.6794C15.6763 15.6795 15.9953 15.3559 16 14.9536V5.12836C16 2.03032 14.2931 0.109528 11.5259 0.109528Z" fill="#E8E4FF"/>
</svg>
