<svg width="13" height="14" viewBox="0 0 13 14" fill="none" xmlns="http://www.w3.org/2000/svg">
<path d="M12.2365 8.18862C12.1858 8.25615 11.9493 8.54317 11.7635 8.7289L11.6622 8.8302C10.2432 10.3666 6.71284 12.6797 4.9223 13.4226C4.9223 13.4395 3.85811 13.8784 3.35135 13.8953H3.28378C2.50676 13.8953 1.78041 13.4563 1.40878 12.7472C1.20608 12.3589 1.02027 11.2277 1.00338 11.2108C0.851351 10.1978 0.75 8.64616 0.75 6.93922C0.75 5.14954 0.851351 3.5287 1.03716 2.53256C1.03716 2.51568 1.22297 1.60396 1.34122 1.30005C1.52703 0.861071 1.86486 0.489629 2.28716 0.253256C2.625 0.0844187 2.97973 0 3.35135 0C3.73986 0.0168837 4.46622 0.271828 4.75338 0.388326C6.64527 1.13121 10.2601 3.56247 11.6453 5.04824C11.8818 5.28461 12.1351 5.57164 12.2027 5.63917C12.4899 6.01061 12.6419 6.46647 12.6419 6.95779C12.6419 7.39508 12.5068 7.83406 12.2365 8.18862Z" fill="#1B163F"/>
</svg>
