<svg width="10" height="9" viewBox="0 0 10 9" fill="none" xmlns="http://www.w3.org/2000/svg">
<path d="M7.9584 5.59857C7.82892 5.71746 7.76942 5.88939 7.79892 6.05801L8.24336 8.38839C8.28086 8.5859 8.19287 8.78578 8.01839 8.89993C7.84741 9.01834 7.61994 9.03255 7.43347 8.93782L5.21926 7.84369C5.14227 7.80485 5.05678 7.78401 4.96929 7.78164H4.83381C4.78682 7.78827 4.74082 7.80248 4.69883 7.82427L2.48411 8.92362C2.37463 8.97572 2.25064 8.99419 2.12916 8.97572C1.8332 8.92267 1.63572 8.65553 1.68422 8.3737L2.12916 6.04333C2.15865 5.87329 2.09916 5.70041 1.96968 5.57962L0.164416 3.92184C0.0134362 3.78306 -0.039057 3.57465 0.029934 3.38662C0.0969251 3.19905 0.267902 3.06217 0.474376 3.03138L2.95905 2.68988C3.14802 2.6714 3.314 2.56246 3.39899 2.40142L4.49385 0.274719C4.51985 0.227353 4.55335 0.183777 4.59384 0.146833L4.63883 0.113677C4.66233 0.089047 4.68933 0.0686796 4.71932 0.0521019L4.77382 0.0331557L4.85881 0H5.06928C5.25725 0.0184724 5.42273 0.125045 5.50922 0.284192L6.61857 2.40142C6.69857 2.55631 6.85404 2.66383 7.03352 2.68988L9.51819 3.03138C9.72817 3.0598 9.90364 3.19716 9.97313 3.38662C10.0386 3.57654 9.98213 3.78495 9.82815 3.92184L7.9584 5.59857Z" fill="#FFA502"/>
</svg>
